<svg width="32" height="32" viewBox="0 0 32 32" fill="none" xmlns="http://www.w3.org/2000/svg">
  <rect width="32" height="32" rx="4" fill="#00A1E0"/>
  <path d="M11 15C11 13.3431 12.3431 12 14 12C15.3062 12 16.4175 12.8348 16.8293 14H18.9543C18.4901 11.6112 16.463 10 14 10C11.2386 10 9 12.2386 9 15C9 17.7614 11.2386 20 14 20C16.463 20 18.4901 18.3888 18.9543 16H16.8293C16.4175 17.1652 15.3062 18 14 18C12.3431 18 11 16.6569 11 15Z" fill="white"/>
  <path d="M20 14C18.8954 14 18 14.8954 18 16C18 17.1046 18.8954 18 20 18H22C23.1046 18 24 17.1046 24 16C24 14.8954 23.1046 14 22 14H20Z" fill="white"/>
</svg> 