<?xml version="1.0" encoding="UTF-8"?>
<svg width="32" height="32" viewBox="0 0 32 32" fill="none" xmlns="http://www.w3.org/2000/svg">
  <!-- Neural Glyph Favicon -->
  <g id="neural-favicon">
    <!-- Central node -->
    <circle cx="16" cy="16" r="2.5" fill="#2673EC"/>
  
    <!-- Neural pathways -->
    <path d="M16 16 Q10 10 7 13 Q4 16 7 19 Q10 22 16 16" stroke="#2673EC" stroke-width="1.5" fill="none" opacity="0.8"/>
    <path d="M16 16 Q22 10 25 13 Q28 16 25 19 Q22 22 16 16" stroke="#2673EC" stroke-width="1.5" fill="none" opacity="0.8"/>
    <path d="M16 16 Q13 7 16 4 Q19 7 16 16" stroke="#2673EC" stroke-width="1.5" fill="none" opacity="0.6"/>
    <path d="M16 16 Q13 25 16 28 Q19 25 16 16" stroke="#2673EC" stroke-width="1.5" fill="none" opacity="0.6"/>
    
    <!-- Signal nodes -->
    <circle cx="7" cy="16" r="1" fill="#2673EC" opacity="0.7"/>
    <circle cx="25" cy="16" r="1" fill="#2673EC" opacity="0.7"/>
    <circle cx="16" cy="7" r="1" fill="#2673EC" opacity="0.5"/>
    <circle cx="16" cy="25" r="1" fill="#2673EC" opacity="0.5"/>
    
    <!-- Inner spark -->
    <circle cx="16" cy="16" r="0.5" fill="#D8E8FF"/>
  </g>
</svg> 